<svg xmlns="http://www.w3.org/2000/svg" width="146" height="378.482" viewBox="0 0 146 378.482">
  <g id="cube" transform="translate(0 41.741)">
    <path id="Combined-Shape" d="M74.985,210,146,251.426v85.315L73,294.158,0,336.741V251.426L71.015,210,0,168.574V1.426l72-42v-1.167l1,.583,1-.583v1.167l72,42V168.574ZM73,125.842,143.015,85,73,44.158,2.985,85Zm-1,1.732L2,86.741v80.685l70,40.833Zm0,84.167L2,252.574v80.685l70-40.833Zm0-250L2,2.574V83.259L72,42.426ZM144,83.259V2.574L74-38.259V42.426Zm0,250V252.574L74,211.741v80.685Zm0-165.833V86.741L74,127.574v80.685Z" fill="#44989e"/>
  </g>
</svg>
