<svg xmlns="http://www.w3.org/2000/svg" width="262.701" height="228.704" viewBox="0 0 262.701 228.704">
  <g id="Penguin" transform="translate(-527.187 -907.801)">
    <path id="Polygon_1" data-name="Polygon 1" d="M41.5,0,83,48H0Z" transform="translate(618 1043)" fill="#fff"/>
    <path id="Polygon_2" data-name="Polygon 2" d="M41.5,0,83,17H0Z" transform="translate(701 1108) rotate(180)" fill="#fff"/>
    <path id="Subtraction_2" data-name="Subtraction 2" d="M42,40.505V18.228L83,0,42,40.5Z" transform="translate(617.5 1096)" fill="#fff"/>
    <path id="Subtraction_4" data-name="Subtraction 4" d="M0,0V22.278L41,40.505Z" transform="translate(659.5 1136.505) rotate(180)" fill="#fff"/>
    <path id="Subtraction_5" data-name="Subtraction 5" d="M21,39A19.016,19.016,0,0,1,2.583,15.311,9,9,0,1,0,14.73,2.059,19,19,0,1,1,21,39Z" transform="translate(713 1041)" fill="#fff"/>
    <path id="Subtraction_6" data-name="Subtraction 6" d="M21,39A19.016,19.016,0,0,1,2.583,15.311,9,9,0,1,0,14.73,2.059,19,19,0,1,1,21,39Z" transform="translate(562 1041)" fill="#fff"/>
    <g id="Group_1" data-name="Group 1">
      <path id="Path_1" data-name="Path 1" d="M535.181,1089.75s0-41.69,17.775-67.382,50.254-22.138,50.254-22.138,17.775,2.1,27.147,25.693S618.722,1082,618.722,1082l40.074-46.861L700.325,1082s-17.613-22.784-13.735-50.254,28.116-31.025,28.116-31.025,27.632-3.232,48.477,19.229,17.936,69.644,17.936,69.644a98.6,98.6,0,0,0,8.726-36.357c.646-20-6.141-43.629-6.141-43.629s-9.574-27.635-27.3-47.508-43.633-32-43.633-32a135.634,135.634,0,0,0-25.692-8.079,158.261,158.261,0,0,0-28.117-2.424,29.069,29.069,0,0,0,3.393-5.009,56.216,56.216,0,0,0,2.909-6.787s-22.5,6.262-40.559,13.412A250.786,250.786,0,0,0,593.03,936.4s-29.53,19.27-45.891,44.437-19.552,56.233-19.552,56.233a135.292,135.292,0,0,0,.647,27.188,122.978,122.978,0,0,0,6.947,25.49Z" fill="#fff"/>
      <path id="Path_2" data-name="Path 2" d="M542.388,1044.44s14.494-24.578,42.013-29.409,47.685,18.7,47.685,18.7-1.47-17.645-15.335-27.729-28.989-5.252-28.989-5.252-16.385,1.891-28.989,14.284S542.388,1044.44,542.388,1044.44Z" fill="#fff" opacity="0.15"/>
      <path id="Path_3" data-name="Path 3" d="M632.611,1044.44s-14.579-24.578-42.259-29.409-47.964,18.7-47.964,18.7,1.479-17.645,15.425-27.729,29.159-5.252,29.159-5.252,16.481,1.891,29.159,14.284S632.611,1044.44,632.611,1044.44Z" transform="translate(143.474)" fill="#fff" opacity="0.15"/>
    </g>
  </g>
</svg>
