<svg xmlns="http://www.w3.org/2000/svg" width="100" height="73.805" viewBox="0 0 100 73.805">
  <path id="Logo" d="M1778.362,151.2a152.48,152.48,0,0,1-17.3-13.357l-1.546-1.407h-8.546l-.486.608a2.426,2.426,0,0,1-4.29-1.668,2.377,2.377,0,0,1,2.692-2.38,2.429,2.429,0,0,1,2.015,1.39l.33.66h3.387a31.918,31.918,0,0,0,3.387-.087,14.9,14.9,0,0,0-1.025-1.355,23.081,23.081,0,0,1-1.72-2.38l-.677-1.129-2.831-.052-2.831-.052-1.424-1.025-1.442-1.042h-8.824l-.3.521a2.254,2.254,0,0,1-2.328,1.007,2.418,2.418,0,0,1,.243-4.829,2.54,2.54,0,0,1,2.189,1.268l.33.643h9.519l1.32.955,1.338.955h2.084c1.911,0,2.067-.017,1.945-.3a55.963,55.963,0,0,1-1.841-5.541l-.365-1.459h-8.285l-.382.538a2.493,2.493,0,1,1-2.275-3.96,2.416,2.416,0,0,1,2.449,1.355l.278.677h3.96c2.171,0,3.943-.017,3.943-.052s-.313-1.685-.695-3.665-.695-3.63-.695-3.682a17.286,17.286,0,0,0-2.136-.069h-2.136l-1.164,1.042-1.181,1.042h-6.166l-.382.5a2.6,2.6,0,0,1-2.605.9,2.862,2.862,0,0,1-1.859-2,2.557,2.557,0,0,1,1.754-2.814,2.732,2.732,0,0,1,3.04,1.459c.139.382.208.382,2.866.382h2.727l1.007-.955,1.007-.955h2.432c2.275,0,2.449-.017,2.449-.33,0-.486-.695-4.916-.8-5.089a21.665,21.665,0,0,0-3.283-.139h-3.2l-.278.5a2.467,2.467,0,0,1-4.429-.087,2.323,2.323,0,0,1,.191-2.519,2.634,2.634,0,0,1,2.988-.834c.556.3,1.338,1.06,1.338,1.32,0,.174.695.226,3.3.226h3.3l-.087-.382c-.382-1.72-1.546-13.34-1.355-13.531.069-.052,1.424-.4,3.005-.764,8.807-1.963,19.75-5.055,29.233-8.233L1782.339,80l3.335,1.129c8.65,2.936,22.042,6.687,29.789,8.338,1.824.4,2.293.556,2.293.782,0,.973-1.268,12.68-1.494,13.74l-.1.486h5.906l.365-.591a2.465,2.465,0,0,1,3.127-.886,3.741,3.741,0,0,1,.973.816c.417.5.469.66.4,1.563a1.972,1.972,0,0,1-.573,1.529,2.437,2.437,0,0,1-3.787-.174l-.591-.695h-2.97c-2.953,0-2.988,0-3.074.4a47.734,47.734,0,0,0-.66,4.864,10.145,10.145,0,0,0,2.171.122h2.084l1.094.955,1.077.955h5.4l.208-.538a2.528,2.528,0,0,1,2.258-1.372,2.367,2.367,0,0,1,2.432,2.4,2.428,2.428,0,0,1-4.325,1.668l-.521-.591h-6.132l-1.181-1.042-1.181-1.06-1.876.052-1.859.052-.729,3.7-.73,3.682h7.417l.243-.608a2.714,2.714,0,0,1,1.963-1.407,2.492,2.492,0,0,1,2.484,1.424,2.43,2.43,0,0,1-2.605,3.491,1.845,1.845,0,0,1-1.424-.8l-.625-.712-3.873.035-3.856.052-.417,1.563c-.226.868-.764,2.432-1.181,3.509-.434,1.06-.782,1.98-.782,2.032a8.9,8.9,0,0,0,1.876.1h1.859l1.3-.955,1.3-.955h9.571l.3-.608a2.465,2.465,0,1,1,.243,2.692l-.591-.695h-8.615l-1.459,1.042-1.442,1.042h-5.333l-.8,1.268a23.367,23.367,0,0,1-1.841,2.414,9.635,9.635,0,0,0-1.06,1.251,28.721,28.721,0,0,0,3.37.1h3.37l.33-.643a2.478,2.478,0,0,1,4.395-.191,2.518,2.518,0,0,1-1.859,3.735,2.785,2.785,0,0,1-2.38-1.06l-.278-.452h-8.511l-1.355,1.251a140.664,140.664,0,0,1-11.065,8.911c-2.519,1.841-9.623,6.687-9.831,6.687C1782.27,153.8,1780.5,152.64,1778.362,151.2Zm-.278-67.412a266.561,266.561,0,0,1-26.506,7.4,16.2,16.2,0,0,0-2.31.608c-.278.243,1.094,12.211,2.137,18.673,1.928,11.916,3.266,16.449,6.114,20.635,2.189,3.231,7.452,8.008,14.99,13.6,2.831,2.1,9.536,6.67,9.8,6.67.07,0,1.754-1.094,3.735-2.449,8.442-5.7,15.32-11.273,19.194-15.529a25.2,25.2,0,0,0,5.037-8.893c.5-1.546,2.05-8.65,2.536-11.777,1.615-10.161,2.866-20.879,2.449-21.035-.1-.035-1.094-.261-2.189-.486a280.821,280.821,0,0,1-27.167-7.591l-3.63-1.216Zm36.372,52.231a1.069,1.069,0,0,0,1.737.677,1.227,1.227,0,0,0,.226-.695c0-.625-.365-.955-1.025-.955A.869.869,0,0,0,1814.456,136.018Zm-66.874-.643a1.023,1.023,0,0,0,1.859.608c.261-.417.261-.5.035-.921a1.027,1.027,0,0,0-.917-.491A.884.884,0,0,0,1747.582,135.375Zm80.6-7.834a1.168,1.168,0,0,0,.973,1.077,1.281,1.281,0,0,0,.764-.347c.417-.417.434-.66.069-1.181a1.029,1.029,0,0,0-1.807.452Zm-93.971-1.181a.919.919,0,0,0,.035,1.459.825.825,0,0,0,1.338-.174c.469-.591.452-.695-.069-1.2a1.052,1.052,0,0,0-.7-.409A.88.88,0,0,0,1734.207,126.36Zm88.517-6.323a.986.986,0,1,0,1.459,1.3,1.057,1.057,0,0,0-.81-1.6A.9.9,0,0,0,1822.724,120.037Zm-82.889.695a1.061,1.061,0,0,0,1.563.139.931.931,0,0,0-.052-1.355.963.963,0,0,0-.659-.267A.973.973,0,0,0,1739.835,120.732Zm88.69-6.9a1.123,1.123,0,0,0,1.042,1.06.923.923,0,0,0,.764-.382c.347-.5.347-.816-.017-1.216a.928.928,0,0,0-.71-.289C1829.079,113.009,1828.526,113.343,1828.526,113.836Zm-95.013-.538a.982.982,0,0,0,1.633.8,1.152,1.152,0,0,0,.017-1.459,1.221,1.221,0,0,0-.695-.208A.847.847,0,0,0,1733.513,113.3Zm89.976-8.077a1.021,1.021,0,0,0,1.859.538c.261-.417.261-.5.035-.921a1,1,0,0,0-.892-.5A.93.93,0,0,0,1823.488,105.221Zm-84.713-1.129a.982.982,0,0,0,1.511,1.251c.469-.469.434-.8-.087-1.32a1.014,1.014,0,0,0-.706-.337A.913.913,0,0,0,1738.776,104.092Zm43.286,43.494a1.6,1.6,0,0,1,.33-3.161,1.85,1.85,0,0,1,1.424.886,1.278,1.278,0,0,1-.191,1.685,1.531,1.531,0,0,1-1.214.626A1.831,1.831,0,0,1,1782.061,147.586ZM1792,133.273l-1.424-.052-.087-6.514-.087-6.514h-4.273c-3.978,0-4.308.017-4.655.33-.347.33-.365.469-.365,5.037,0,2.588.069,4.794.139,4.9a6.987,6.987,0,0,0,2.553.261c2.241.069,2.5.1,3.422.556.99.486,1.859,1.476,1.615,1.859-.174.278-20.67.208-21.452-.069a2.44,2.44,0,0,1-.99-.8c-.4-.573-.4-.625-.4-6.861,0-6.2,0-6.305.382-6.774.695-.886,1.094-.955,6.305-.955,4.186,0,4.777.035,4.777.261,0,.486-.556,1.129-1.372,1.615-.764.452-.938.469-3.682.556a10.029,10.029,0,0,0-3.179.33c-.243.208-.278.8-.243,5.211l.052,4.968h9.206l.087-5.836c.087-5.541.1-5.871.434-6.236.764-.868.834-.868,10.682-.868,5.055,0,9.206.052,9.206.139,0,.4-.782,1.285-1.511,1.7a4.086,4.086,0,0,1-2.223.591l-1.39.087-.052,6.566-.035,6.566Zm-12.072-21.712a23.72,23.72,0,0,1-2.38-2.189,17.774,17.774,0,0,1,2.38.834,18.165,18.165,0,0,0,2.658.9,15,15,0,0,0,2.414-.886,16.907,16.907,0,0,1,2.136-.834,49.453,49.453,0,0,1-4.586,4.29A29.917,29.917,0,0,1,1779.925,111.561Zm-.069-2.293c-1.407-.486-2.605-.938-2.675-1.007a22.28,22.28,0,0,1,2.605-2.866,15.424,15.424,0,0,1,2.866-2.553c.069.087,1.216,1.32,2.519,2.727a16.121,16.121,0,0,1,2.258,2.727c-.139.1-4.342,1.7-4.846,1.824l-.017,0A22.194,22.194,0,0,1,1779.855,109.268Zm-13.427-1.164c-.33-.521-.5-3.7-.3-5.524a16.465,16.465,0,0,1,9.883-13.861l1.945-.921-.261-.608c-.243-.591-.33-1.65-.139-1.65a2.508,2.508,0,0,1,.608.434,4.223,4.223,0,0,0,2.762.782,23.5,23.5,0,0,1,5.211.712,17.211,17.211,0,0,1,11.221,9.8,14.785,14.785,0,0,1,1.355,6.983c.017,2.449-.017,2.849-.278,3.109-.417.417-.452.261-.538-2.536a11.022,11.022,0,0,0-1.285-5.524,4.715,4.715,0,0,0-4.342-2.4c-3.092.417-4.9,3.248-4.968,7.8a6.305,6.305,0,0,1-.122,1.511c-.052,0-1.094-1.094-2.31-2.432a25.633,25.633,0,0,0-2.38-2.432,28.89,28.89,0,0,0-2.4,2.362l-2.258,2.362-.122-1.285q-.756-7.947-5.263-7.955c-2.519,0-4.464,2.1-5.159,5.593a28.959,28.959,0,0,0-.382,3.578c-.08,1.626-.16,2.27-.318,2.27C1766.548,108.273,1766.493,108.213,1766.428,108.1Zm24.682-1.529a2.37,2.37,0,0,1-.747-3.335,2.4,2.4,0,0,1,2.084-1.112c.417.122.434.122.156.608-.26.434-.26.5.035.955.313.469.66.521,1.841.243.8-.208.035,2.05-.9,2.623a2.556,2.556,0,0,1-1.286.334A2.17,2.17,0,0,1,1791.111,106.576Zm-18.568.313a3.368,3.368,0,0,1-1.077-.156,3.249,3.249,0,0,1-.869-.695,1.618,1.618,0,0,1-.521-1.476,2.2,2.2,0,0,1,1.338-2.223c.8-.4,1.615-.261,1.355.226-.643,1.2.3,1.876,1.789,1.3.243-.1.3-.035.3.417a2.528,2.528,0,0,1-2.284,2.606Zm36.789-10.144a1.479,1.479,0,0,1,.1-2.241,1.392,1.392,0,0,1,2.084.052,1.457,1.457,0,0,1,.243,1.911c-.278.573-.573.712-1.407.712A1.327,1.327,0,0,1,1809.332,96.744ZM1753.384,97a1.638,1.638,0,0,1-.521-2.553,1.563,1.563,0,0,1,2.71,1.077,1.646,1.646,0,0,1-1.62,1.6A1.41,1.41,0,0,1,1753.384,97Z" transform="translate(-1732 -80)" fill="#fff"/>
</svg>
